<svg width="102" height="23" viewBox="0 0 102 23" fill="none" xmlns="http://www.w3.org/2000/svg">
<path fill-rule="evenodd" clip-rule="evenodd" d="M4.13175 13.1602L3.13647 15.0336V21.3273H-0.0835266V0.836356H3.13647V9.76454L7.35175 0.836356H10.5717L6.09302 9.96945L10.5717 21.3273H7.26393L4.13175 13.1602ZM15.1173 16.6144C15.1173 17.3559 15.2686 17.878 15.5711 18.1804C15.8735 18.4829 16.2785 18.6342 16.7859 18.6342C17.2933 18.6342 17.6982 18.4829 18.0007 18.1804C18.3032 17.878 18.4544 17.3559 18.4544 16.6144V5.54926C18.4544 4.80768 18.3032 4.28566 18.0007 3.98317C17.6982 3.68069 17.2933 3.52945 16.7859 3.52945C16.2785 3.52945 15.8735 3.68069 15.5711 3.98317C15.2686 4.28566 15.1173 4.80768 15.1173 5.54926V16.6144ZM11.8974 5.75417C11.8974 4.09538 12.317 2.82203 13.1562 1.93408C13.9953 1.04614 15.2052 0.602173 16.786 0.602173C18.3667 0.602173 19.5766 1.04614 20.4158 1.93408C21.255 2.82203 21.6745 4.09538 21.6745 5.75417V16.4094C21.6745 18.0682 21.255 19.3416 20.4158 20.2295C19.5766 21.1175 18.3667 21.5614 16.786 21.5614C15.2052 21.5614 13.9953 21.1175 13.1562 20.2295C12.317 19.3416 11.8974 18.0682 11.8974 16.4094V5.75417ZM26.9518 6.48599V21.3273H24.0538V0.836356H28.0934L31.4013 13.1016V0.836356H34.27V21.3273H30.9622L26.9518 6.48599ZM36.5033 5.75417C36.5033 4.09538 36.8985 2.82203 37.6889 1.93408C38.4792 1.04614 39.6648 0.602173 41.2455 0.602173C42.8262 0.602173 44.0118 1.04614 44.8021 1.93408C45.5925 2.82203 45.9877 4.09538 45.9877 5.75417V6.39817H42.9433V5.54926C42.9433 4.80768 42.8018 4.28566 42.5189 3.98317C42.2359 3.68069 41.8407 3.52945 41.3333 3.52945C40.8259 3.52945 40.4307 3.68069 40.1478 3.98317C39.8648 4.28566 39.7233 4.80768 39.7233 5.54926C39.7233 6.25181 39.8794 6.87141 40.1917 7.40808C40.5039 7.94475 40.8942 8.45214 41.3626 8.93026C41.831 9.40839 42.3335 9.8865 42.8701 10.3646C43.4068 10.8428 43.9093 11.3648 44.3777 11.9307C44.8461 12.4967 45.2364 13.1407 45.5486 13.8627C45.8608 14.5848 46.017 15.4337 46.017 16.4094C46.017 18.0682 45.612 19.3416 44.8021 20.2295C43.9923 21.1175 42.797 21.5614 41.2162 21.5614C39.6355 21.5614 38.4402 21.1175 37.6303 20.2295C36.8204 19.3416 36.4155 18.0682 36.4155 16.4094V15.1507H39.4599V16.6144C39.4599 17.3559 39.6111 17.8731 39.9136 18.1658C40.2161 18.4585 40.621 18.6049 41.1284 18.6049C41.6358 18.6049 42.0407 18.4585 42.3432 18.1658C42.6457 17.8731 42.797 17.3559 42.797 16.6144C42.797 15.9118 42.6408 15.2922 42.3286 14.7555C42.0164 14.2189 41.6261 13.7115 41.1577 13.2334C40.6893 12.7552 40.1868 12.2771 39.6501 11.799C39.1135 11.3209 38.611 10.7988 38.1426 10.2329C37.6742 9.66696 37.2839 9.02296 36.9717 8.3009C36.6594 7.57884 36.5033 6.72994 36.5033 5.75417ZM47.2545 0.836356H57.2073V3.76363H53.8409V21.3273H50.6209V3.76363H47.2545V0.836356ZM65.6756 21.3273C65.6366 21.1907 65.5975 21.0638 65.5585 20.9467C65.5195 20.8296 65.4853 20.6833 65.4561 20.5076C65.4268 20.332 65.4073 20.1076 65.3975 19.8344C65.3878 19.5611 65.3829 19.2196 65.3829 18.8098V15.5898C65.3829 14.6336 65.217 13.9603 64.8852 13.57C64.5535 13.1797 64.0168 12.9845 63.2752 12.9845H62.1629V21.3273H58.9429V0.836356H63.8022C65.4805 0.836356 66.6953 1.22666 67.4466 2.00727C68.1979 2.78788 68.5736 3.96853 68.5736 5.54927V7.15927C68.5736 9.26691 67.8711 10.6525 66.466 11.316C67.2856 11.6478 67.8467 12.1893 68.1491 12.9406C68.4516 13.692 68.6029 14.6043 68.6029 15.6776V18.8391C68.6029 19.3465 68.6224 19.7904 68.6614 20.171C68.7005 20.5515 68.798 20.937 68.9541 21.3273H65.6756ZM62.1628 3.76363V10.0573H63.4215C64.0265 10.0573 64.4997 9.90115 64.8412 9.5889C65.1828 9.27666 65.3535 8.71072 65.3535 7.89108V5.87127C65.3535 5.12969 65.2218 4.59302 64.9583 4.26127C64.6949 3.92951 64.2802 3.76363 63.7142 3.76363H62.1628ZM74.1145 0.836356V16.6436C74.1145 17.3852 74.2657 17.9024 74.5682 18.1951C74.8707 18.4878 75.2756 18.6342 75.783 18.6342C76.2904 18.6342 76.6954 18.4878 76.9978 18.1951C77.3003 17.9024 77.4516 17.3852 77.4516 16.6436V0.836356H80.4959V16.4387C80.4959 18.0975 80.091 19.3709 79.2811 20.2588C78.4712 21.1468 77.2759 21.5907 75.6952 21.5907C74.1145 21.5907 72.9192 21.1468 72.1093 20.2588C71.2994 19.3709 70.8945 18.0975 70.8945 16.4387V0.836356H74.1145ZM91.8203 0.836356H101.773V3.76363H98.4066V21.3273H95.1866V3.76363H91.8203V0.836356Z" fill="white"/>
<path fill-rule="evenodd" clip-rule="evenodd" d="M82.0255 11.4852L90.3892 1.03064V21.9397L82.0255 11.4852Z" fill="#00A4E5"/>
</svg>
